<svg xmlns="http://www.w3.org/2000/svg" viewBox="0 0 642.18 124.5"><defs><style>.cls-1{fill:#fff;}.cls-2{fill:#3a539b;}.cls-3{fill:none;stroke:#3a539b;stroke-miterlimit:10;stroke-width:1.39px;}</style></defs><title>banner_white</title><g id="Layer_2" data-name="Layer 2"><g id="Layer_1-2" data-name="Layer 1"><path class="cls-1" d="M61.23,0h61.23a0,0,0,0,1,0,0V61.23a61.23,61.23,0,0,1-61.23,61.23h0A61.23,61.23,0,0,1,0,61.23v0A61.23,61.23,0,0,1,61.23,0Z" transform="translate(0 122.46) rotate(-90)"/><circle class="cls-2" cx="30.59" cy="56.21" r="8.02"/><circle class="cls-2" cx="59.78" cy="56.21" r="8.02"/><circle class="cls-2" cx="88.96" cy="56.21" r="8.02"/><line class="cls-3" x1="30.59" y1="56.21" x2="90.62" y2="56.21"/><path class="cls-1" d="M179.13,121.45V6.74H203q12.61,0,18.61,1.29a26.84,26.84,0,0,1,10.3,4.43,27.35,27.35,0,0,1,8.51,10.46,32.34,32.34,0,0,1,3,14q0,9.09-4.35,15.2a22.66,22.66,0,0,1-12.65,8.54,24.32,24.32,0,0,1,16.1,9.13q5.91,7.56,5.92,19.08A35.09,35.09,0,0,1,246,102a31.65,31.65,0,0,1-7,10.74,26.94,26.94,0,0,1-12,6.74q-7.14,2-24,2ZM192.44,18.57V57H203q14.58,0,20.53-4.23t6-14.26q0-11-5.53-15.47t-21-4.43Zm0,49.13v41.84H203a99.16,99.16,0,0,0,15.71-.87,18.46,18.46,0,0,0,7.72-3,17,17,0,0,0,5.56-7,23.43,23.43,0,0,0,2-9.87A23.08,23.08,0,0,0,231.62,78a17.42,17.42,0,0,0-7.05-7.21,19.64,19.64,0,0,0-6.35-2.35,64.2,64.2,0,0,0-11.2-.7H192.44Z"/><path class="cls-1" d="M279.57,49.75V85q0,15.43,4.59,21.59t15.47,6.15q10.89,0,15.4-6.07T319.53,85V49.75h12.54V91.59q0,16.23-8.31,24.57t-24.44,8.34q-16,0-24.29-8.38t-8.31-24.53V49.75Z"/><path class="cls-1" d="M355.81,0H368V63.23a29.73,29.73,0,0,1,10.74-12,28.91,28.91,0,0,1,15.43-4q15.44,0,24.64,10.5T428,85.8q0,17.46-9.4,28.08T393.65,124.5a28.34,28.34,0,0,1-15.12-4.19,31.31,31.31,0,0,1-11-11.87v13H355.81Zm11.67,86q0,12.54,6.43,19.59t17.63,7q11,0,17.19-7.48T415,84.39q0-11.76-6.11-18.42t-16.92-6.66q-11,0-17.71,7.33T367.48,86Z"/><path class="cls-1" d="M447.56,0H459.7V63.23a29.73,29.73,0,0,1,10.74-12,28.93,28.93,0,0,1,15.43-4q15.44,0,24.64,10.5t9.21,28.13q0,17.46-9.4,28.08T485.4,124.5a28.36,28.36,0,0,1-15.12-4.19,31.31,31.31,0,0,1-11-11.87v13H447.56Zm11.67,86q0,12.54,6.43,19.59t17.63,7q11,0,17.2-7.48t6.22-20.72q0-11.76-6.11-18.42t-16.92-6.66q-11,0-17.71,7.33T459.23,86Z"/><path class="cls-1" d="M539.94,121.45V0h12.53V121.45Z"/><path class="cls-1" d="M642.18,87.44h-56.8v1.1q0,11.52,6.58,18.61t17.16,7.09a22.93,22.93,0,0,0,13-3.88,34,34,0,0,0,10.26-11.72l9.32,6.27a35.92,35.92,0,0,1-33.22,19.59q-16.37,0-26.48-10.81T571.9,85.33q0-16.85,10-27.58T607.71,47q15.9,0,25.19,10.19T642.18,85ZM629,77.49q-.63-9.48-6.31-14.61t-15.55-5.13a21.45,21.45,0,0,0-14.89,5.36q-6,5.37-6.89,14.38Z"/></g></g></svg>