<svg xmlns="http://www.w3.org/2000/svg" viewBox="0 0 122.46 122.46"><defs><style>.cls-1{fill:#3a539b;}.cls-2,.cls-3{fill:#fff;}.cls-2{opacity:0.07;}.cls-4{fill:none;stroke:#fff;stroke-miterlimit:10;stroke-width:1.39px;}</style></defs><title>logo_color</title><g id="Layer_2" data-name="Layer 2"><g id="Layer_1-2" data-name="Layer 1"><path class="cls-1" d="M61.23,0h61.23a0,0,0,0,1,0,0V61.23a61.23,61.23,0,0,1-61.23,61.23h0A61.23,61.23,0,0,1,0,61.23v0A61.23,61.23,0,0,1,61.23,0Z" transform="translate(0 122.46) rotate(-90)"/><path class="cls-2" d="M58.25,0H116.5a0,0,0,0,1,0,0V58.25A58.25,58.25,0,0,1,58.25,116.5h0A58.25,58.25,0,0,1,0,58.25v0A58.25,58.25,0,0,1,58.25,0Z" transform="translate(0 116.5) rotate(-90)"/><circle class="cls-3" cx="30.59" cy="56.21" r="8.02"/><circle class="cls-3" cx="59.78" cy="56.21" r="8.02"/><circle class="cls-3" cx="88.96" cy="56.21" r="8.02"/><line class="cls-4" x1="30.59" y1="56.21" x2="90.62" y2="56.21"/></g></g></svg>